<?xml version="1.0" encoding="UTF-8" standalone="no"?>
<!-- Created with Inkscape (http://www.inkscape.org/) -->

<svg
   width="210mm"
   height="297mm"
   viewBox="0 0 210 297"
   version="1.1"
   id="svg5"
   xml:space="preserve"
   inkscape:export-filename="comida.svg"
   inkscape:export-xdpi="3.870476"
   inkscape:export-ydpi="3.870476"
   xmlns:inkscape="http://www.inkscape.org/namespaces/inkscape"
   xmlns:sodipodi="http://sodipodi.sourceforge.net/DTD/sodipodi-0.dtd"
   xmlns="http://www.w3.org/2000/svg"
   xmlns:svg="http://www.w3.org/2000/svg"><sodipodi:namedview
     id="namedview7"
     pagecolor="#ffffff"
     bordercolor="#000000"
     borderopacity="0.25"
     inkscape:showpageshadow="2"
     inkscape:pageopacity="0.0"
     inkscape:pagecheckerboard="0"
     inkscape:deskcolor="#d1d1d1"
     inkscape:document-units="mm"
     showgrid="false" /><defs
     id="defs2" /><g
     inkscape:label="Capa 1"
     inkscape:groupmode="layer"
     id="layer1"><path
       style="fill:#000000;stroke-width:0.264583"
       d="m 61.361306,121.27929 -4.94738,-0.0235 -3.175,-0.48262 -3.175,-0.48262 -2.66652,-0.67763 -2.66652,-0.67763 -2.74032,-0.95384 -2.74032,-0.95384 -2.40109,-1.12204 -2.40108,-1.12203 -2.37853,-1.40003 -2.37854,-1.40003 -1.71979,-1.21061 -1.71979,-1.21061 -1.9831,-1.60425 -1.98309,-1.60425 -2.26828,-2.24895 -2.26829,-2.24896 -2.09889,-2.645828 -2.09889,-2.64584 -1.43624,-2.24214 -1.43625,-2.24215 -1.1271698,-2.12348 -1.12717,-2.12348 -0.93638,-2.19302 -0.93638,-2.19303 -0.81861,-2.437181 -0.81862,-2.437183 -0.62188,-2.645833 -0.62188,-2.645834 -0.45318,-3.042708 -0.45319,-3.042708 0.004,-4.7625 0.004,-4.7625 0.44554,-3.175 0.44555,-3.175 0.62872,-2.645833 0.62873,-2.645833 0.65354,-1.984375 0.65354,-1.984375 0.83577,-2.116667 0.83576,-2.116666 1.46398,-2.778125 1.4639898,-2.778125 1.46496,-2.248125 1.46497,-2.248125 1.68015,-2.151681 1.68016,-2.151679 2.8964,-2.907136 2.8964,-2.907133 2.20066,-1.7184 2.20066,-1.718402 2.24813,-1.462553 2.24812,-1.462556 2.51354,-1.3381647 2.51355,-1.338164 2.91041,-1.160566 2.91042,-1.160566 2.91042,-0.824878 2.91041,-0.824878 3.04271,-0.568037 3.04271,-0.568033 5.55828,-0.139989 5.55828,-0.139988 3.51188,0.446995 3.51188,0.446995 3.10068,0.758071 3.10067,0.758071 1.98437,0.707448 1.98438,0.707445 2.77813,1.22305 2.778115,1.223047 2.51354,1.4302177 2.51354,1.430219 2.11667,1.485103 2.11667,1.485106 2.24896,1.884381 2.248959,1.884381 2.13291,2.218637 2.13292,2.218637 1.57125,1.982245 1.57125,1.982245 1.66845,2.515672 1.66844,2.515671 1.83025,3.704167 1.83026,3.704166 1.18118,3.571875 1.18119,3.571875 0.65725,3.175 0.65726,3.175 0.28525,2.890224 0.28526,2.890223 v 3.101012 3.101014 l -0.27632,2.740015 -0.27632,2.740011 -0.65937,3.281257 -0.65938,3.281254 -1.20103,3.597912 -1.20102,3.597908 -1.52761,3.175 -1.5276,3.175 -1.38044,2.23103 -1.38042,2.23103 -1.90056,2.53106 -1.90055,2.531048 -2.73181,2.82941 -2.7318,2.8294 -2.765689,2.1981 -2.76569,2.19809 -2.59479,1.63608 -2.59478,1.63609 -2.88793,1.44443 -2.887925,1.44442 -3.3073,1.18802 -3.30729,1.18802 -2.91042,0.68389 -2.91041,0.68389 -3.12241,0.40539 -3.1224,0.40539 -4.94739,-0.0235 z m 0.1323,-4.50878 4.28593,0.0343 3.1224,-0.40605 3.12241,-0.40605 2.2172,-0.5232 2.21721,-0.5232 2.80988,-0.95006 2.80987,-0.95007 3.43959,-1.65341 3.439575,-1.65342 2.77813,-1.85653 2.77812,-1.85653 2.54254,-2.138 2.54254,-2.138 1.794469,-1.931598 1.79446,-1.93159 1.8148,-2.3414 1.8148,-2.34139 1.50098,-2.42111 1.50099,-2.4211 1.1788,-2.51354 1.17881,-2.51354 0.91205,-2.513543 0.91206,-2.513542 0.77282,-3.081726 0.77282,-3.081729 0.39759,-3.398943 0.3976,-3.398941 v -2.79994 -2.79994 l -0.28451,-2.890223 -0.28452,-2.890224 -0.64947,-3.042708 -0.64947,-3.042708 -1.07348,-3.175 -1.07348,-3.175 -1.56268,-3.206999 -1.56268,-3.206998 -2.10695,-3.143001 -2.10694,-3.143001 -2.33125,-2.637335 -2.33124,-2.637335 -2.508859,-2.215166 -2.50885,-2.215168 -3.175,-2.134611 -3.175,-2.13461 -3.439575,-1.660081 -3.43959,-1.66008 -3.175,-1.049102 -3.175,-1.0490997 -2.77812,-0.549521 -2.77813,-0.549518 -2.24202,-0.271375 -2.24201,-0.271373 h -4.02829 -4.02828 l -2.99012,0.394719 -2.99011,0.394718 -2.64583,0.646425 -2.64584,0.646425 -2.77812,0.9654987 -2.77813,0.965499 -2.64583,1.277408 -2.64583,1.277406 -2.38125,1.49929 -2.38125,1.499288 -1.98438,1.48612 -1.98437,1.486122 -2.87295,2.792518 -2.87295,2.792521 -1.60594,1.984375 -1.60595,1.984375 -1.81695,2.778125 -1.81695,2.778125 -1.41956,2.910416 -1.41955,2.910417 -0.95662,2.75744 -0.9566198,2.757437 -0.63898,2.534229 -0.63898,2.534227 -0.44308,3.042708 -0.44308,3.042708 0.13431,5.688542 0.13431,5.688541 0.40222,2.116667 0.40223,2.116666 0.56705,2.248959 0.56705,2.248958 0.5456998,1.5875 0.54569,1.5875 0.91732,2.248958 0.91732,2.24896 1.02211,1.89182 1.02212,1.89183 0.85584,1.41546 0.85584,1.41547 1.85108,2.51354 1.85107,2.51354 3.45845,3.458448 3.45845,3.45845 2.51354,1.86193 2.51354,1.86194 2.77812,1.61435 2.77813,1.61435 2.82294,1.18195 2.82295,1.18195 2.50057,0.80101 2.50058,0.801 2.70003,0.55023 2.70003,0.55023 1.89833,0.2212 1.89832,0.22119 z m -13.604,-17.959838 -3.11735,-0.002 -1.1015,-0.66025 -1.10151,-0.66025 -0.57229,-1.18221 -0.5723,-1.1822 0.30869,-19.123275 0.30868,-19.123267 -1.28072,-1.357239 -1.28071,-1.357238 -0.87863,-1.464649 -0.87862,-1.464646 -0.64108,-1.843399 -0.64107,-1.8434 -0.2959,-2.081591 -0.2959,-2.081588 0.15284,-2.513542 0.15283,-2.513541 0.40862,-1.5875 0.40862,-1.5875 1.09978,-2.248958 1.09979,-2.248959 1.65752,-1.659956 1.65753,-1.659958 1.53954,-0.721292 1.53954,-0.721415 h 2.51354 2.51355 l 1.51475,0.743834 1.51475,0.743833 1.53181,1.508215 1.53182,1.508215 1.10739,2.128549 1.10739,2.128547 0.59433,2.101696 0.59433,2.101694 -0.005,3.307291 -0.005,3.307292 -0.5615,2.162344 -0.56149,2.162344 -0.83871,1.674114 -0.83872,1.674114 -0.96136,1.189755 -0.96137,1.189754 -0.62087,0.538364 -0.62088,0.538366 0.0398,6.738548 0.0398,6.738546 0.22127,12.264958 0.22126,12.26496 -0.2457,0.88985 -0.2457,0.88984 -0.70508,0.83794 -0.70508,0.83795 -0.86375,0.36089 -0.86375,0.3609 -3.11736,-0.002 z m 0.37277,-3.9703 1.90261,0.004 0.16329,-0.2642 0.16328,-0.2642 -0.31905,-19.898512 -0.31904,-19.89851 0.48773,-0.276352 0.48774,-0.276349 1.27754,-1.166673 1.27754,-1.166669 0.92332,-1.876039 0.92333,-1.876036 0.41934,-1.984375 0.41933,-1.984375 -0.13225,-2.645833 -0.13226,-2.645833 -0.59223,-1.784914 -0.59224,-1.784916 -1.08759,-1.631116 -1.08759,-1.631119 -1.13405,-0.805371 -1.13405,-0.80537 -1.69704,-0.108059 -1.69704,-0.108061 -1.2031,0.582411 -1.2031,0.582409 -0.95056,1.10122 -0.95057,1.101219 -0.75103,1.476365 -0.75103,1.476367 -0.44391,1.698633 -0.44391,1.698635 0.0226,2.645833 0.0226,2.645834 0.41197,1.570939 0.41197,1.57094 0.51635,1.167286 0.51635,1.167286 0.93808,1.277927 0.93809,1.277927 1.21037,0.746347 1.21037,0.746347 -0.15841,6.482292 -0.15842,6.482291 -0.1748,13.453348 -0.17479,13.453346 0.37083,0.23479 0.37084,0.23479 1.90261,0.004 z M 38.920196,41.92776 h 0.13229 l 0.16352,-0.264583 0.16352,-0.264584 h -0.13229 -0.13229 l -0.16352,0.264584 -0.16352,0.264583 z m 37.1878,56.875062 -3.02532,-0.0103 -0.80687,-0.35145 -0.80686,-0.35145 -0.70433,-0.83703 -0.70431,-0.83704 -0.23763,-0.86061 -0.23763,-0.86062 0.21007,-12.42408 0.21006,-12.424081 0.0592,-6.950054 0.0591,-6.950053 -0.1079,-0.06381 -0.1079,-0.06381 -1.27017,-0.639189 -1.27017,-0.639185 -0.68912,-0.816023 -0.68911,-0.81602 -0.61782,-1.322917 -0.61782,-1.322916 -0.003,-11.840104 -0.002,-11.840104 h 1.98438 1.98437 v 11.287691 11.287691 l 0.65135,1.111438 0.65134,1.111435 0.73772,0.284914 0.73772,0.284914 1.38906,0.173077 1.38906,0.17308 0.001,3.745484 10e-4,3.745483 -0.29327,17.297461 -0.29327,17.297458 0.35845,0.2329 0.35845,0.2329 1.98438,-0.0679 1.98437,-0.0679 v -7.9375 -7.937499 l -0.20742,-13.362493 -0.20742,-13.362495 1.53034,-0.08198 1.53034,-0.08197 0.76382,-0.446154 0.76383,-0.446156 0.49295,-0.921914 0.49294,-0.921915 V 37.896992 26.581927 h 2.12933 2.129315 l -0.0788,11.840104 -0.0788,11.840104 -0.5655,1.22301 -0.5655,1.223012 -0.967195,1.070579 -0.96721,1.07058 -1.20108,0.484534 -1.20107,0.484535 0.22024,14.816666 0.22024,14.816661 v 5.15938 5.15937 l -0.66146,0.9945 -0.66146,0.99449 -1.07572,0.52686 -1.07573,0.52686 -3.02531,-0.0103 z m -3.04728,-55.94902 h -2.00639 l -0.1103,-0.110244 -0.11031,-0.110242 v -8.025695 -8.025694 h 2.11667 2.11666 l 3e-5,8.135937 3e-5,8.135938 z m 6.28351,-0.04037 -1.94054,0.04037 -0.10998,-0.110244 -0.10999,-0.110242 v -8.025695 -8.025694 h 2.12049 2.12049 l -0.07,8.09557 -0.07,8.095572 z"
       id="path396"
       sodipodi:nodetypes="cccccccccccccccccccccccccccccccccccccccccccccccccccccccccccccccccccccccccccccccccccccccccccccccccccccccccccccccccccccccccccccccccccccccccccccccccccccccccccccccccccccccccccccccccccccccccccccccccccccccccccccccccccccccccccccccccccccccccccccccccccccccccccccccccccccccccccccccccccccccccccccccccccccccccccccccccccccccccccccccccccccccccccccccccccccccccccccccccccccccccccccccccccccccccccccccccccccccccccccccccccccccccccccccccccccccccccccccccccccccccccccc" /></g></svg>
