<?xml version="1.0" encoding="UTF-8" standalone="no"?>
<!-- Created with Inkscape (http://www.inkscape.org/) -->

<svg
   width="54.337917mm"
   height="97.851242mm"
   viewBox="0 0 54.337917 97.851242"
   version="1.1"
   id="svg5"
   xml:space="preserve"
   inkscape:export-filename="logo.svg"
   inkscape:export-xdpi="96"
   inkscape:export-ydpi="96"
   xmlns:inkscape="http://www.inkscape.org/namespaces/inkscape"
   xmlns:sodipodi="http://sodipodi.sourceforge.net/DTD/sodipodi-0.dtd"
   xmlns="http://www.w3.org/2000/svg"
   xmlns:svg="http://www.w3.org/2000/svg"><sodipodi:namedview
     id="namedview7"
     pagecolor="#ffffff"
     bordercolor="#000000"
     borderopacity="0.25"
     inkscape:showpageshadow="2"
     inkscape:pageopacity="0.0"
     inkscape:pagecheckerboard="0"
     inkscape:deskcolor="#d1d1d1"
     inkscape:document-units="mm"
     showgrid="false" /><defs
     id="defs2" /><g
     inkscape:label="Capa 1"
     inkscape:groupmode="layer"
     id="layer1"
     transform="translate(-0.92563846,-0.3311366)"><path
       style="fill:#000000;stroke-width:0.264583"
       d="m 6.1825445,98.026392 c -0.291041,-0.0721 -0.624379,-0.29641 -0.740751,-0.49847 -0.116372,-0.20206 -0.609648,-0.36738 -1.096171,-0.36738 -0.542224,0 -0.943531,-0.15361 -1.036884,-0.39688 -0.08376,-0.21828 -0.364389,-0.40761 -0.62362,-0.42074 -0.259228,-0.0131 -0.05461,-0.15435 0.454718,-0.31385 0.771919,-0.24172 0.82967,-0.30651 0.346998,-0.38928 -0.353716,-0.0606 -0.611113,-0.32462 -0.661458,-0.67834 -0.06429,-0.45167 -0.315203,-0.61443 -1.140748,-0.73993 -0.69627301,-0.10585 -0.82450301,-0.17374 -0.374828,-0.19844 0.753007,-0.0414 0.983475,-0.83129 0.242536,-0.83129 -0.70745601,0 -0.77494601,-0.24297 -0.407051,-1.46539 0.190762,-0.63385 0.289544,-1.20976 0.219517,-1.27978 -0.114662,-0.11467 2.250152,-5.13828 2.568784,-5.45692 0.803579,-0.80358 0.797782,-0.98342 -0.09484,-2.942161 -1.389499,-3.04905 -2.473917,-9.02659 -1.787588,-9.85356 0.222462,-0.26805 1.116428,-0.32093 3.876818,-0.2293 3.201892,0.10628 3.644995,0.0672 4.1206785,-0.36327 0.508984,-0.46062 0.59047,-0.46194 1.808538,-0.0293 0.925944,0.32886 2.136013,0.45454 4.415031,0.45854 1.726721,0.003 3.897304,0.16427 4.823521,0.3583 l 1.684033,0.35279 -0.175342,-1.77944 c -0.154935,-1.57236 -1.737053,-6.713584 -2.511005,-8.159724 -0.156662,-0.29273 -0.284842,-0.82383 -0.284842,-1.18023 0,-0.43928 -0.182076,-0.69561 -0.565303,-0.79582 -0.482685,-0.12623 -0.539925,-0.27574 -0.391661,-1.02305 0.09551,-0.48137 0.406305,-1.05381 0.690664,-1.27209 0.581424,-0.44632 0.401354,-0.94642 -0.395158,-1.09746 -0.343374,-0.0651 -0.545195,-0.33133 -0.574821,-0.75822 -0.242223,-3.4905 -0.44596,-4.63947 -1.028261,-5.7988 -0.355232,-0.70725 -0.647671,-1.50674 -0.649861,-1.77665 -0.0065,-0.79477 -0.612328,-2.30061 -1.252786,-3.11366 -0.657834,-0.83511 -0.727755,-1.26544 -0.327213,-2.01386 0.364135,-0.68039 2.482381,-1.58093 3.718668,-1.58093 1.160725,0 1.24305,-0.0864 1.419453,-1.49042 l 0.130331,-1.03731 -2.389153,-1.81522 c -3.211984,-2.44038 -7.576373,-7.68178 -9.5752015,-11.49931 -1.848184,-3.5298 -2.602593,-6.2194 -2.755083,-9.82233 -0.227589,-5.37734 1.269587,-9.7760704 4.3845525,-12.8818804 1.350534,-1.34656 3.74,-3.02044998 3.74,-2.61997 0,0.0783 -0.380048,0.33896 -0.844548,0.57916 -1.402056,0.72503 -3.6418325,3.03556 -4.7155195,4.86447 -3.867902,6.5885704 -2.879551,15.6058204 2.5434785,23.2055104 1.71088,2.39759 5.219282,6.00759 7.599175,7.81925 l 2.075748,1.58013 0.720207,-0.69 c 0.534493,-0.51208 0.997233,-0.69 1.794526,-0.69 1.454174,0 2.378157,0.7603 2.662751,2.19105 0.174471,0.87712 0.338336,1.11624 0.764926,1.11624 0.594863,0 1.422172,0.57423 1.422172,0.98712 0,0.1442 -0.287784,0.18864 -0.643461,0.0994 -0.501187,-0.12579 -0.682506,-0.0385 -0.820034,0.39483 -0.232592,0.73284 0.110964,1.03564 1.349301,1.18923 1.126842,0.13976 1.966278,0.74705 1.966278,1.42249 0,0.27357 1.296884,1.27039 3.439584,2.64374 1.89177,1.21252 3.43958,2.31888 3.43958,2.45856 0,0.37445 -0.49657,0.12762 -3.02612,-1.50422 -1.25619,-0.81037 -2.33513,-1.47341 -2.39765,-1.47341 -0.0625,0 0.12022,0.54565 0.40609,1.21256 0.65063,1.51786 0.64944,1.83276 -0.009,2.49161 -0.56124,0.56124 -2.222144,0.73607 -2.51354,0.26458 -0.08994,-0.14552 -0.387133,-0.26458 -0.66044,-0.26458 -0.420658,0 -0.477205,0.15226 -0.368477,0.99218 0.164513,1.27086 0.924367,4.08 1.205354,4.45612 0.272889,0.36528 0.0095,0.63711 -0.61741,0.63711 -0.694725,0 -0.634841,1.29983 0.15141,3.28654 0.350063,0.88454 0.769655,2.73935 0.932424,4.1218 0.162769,1.382444 0.426011,2.944324 0.58498,3.470844 0.267907,0.88731 0.199332,1.13488 -0.937995,3.38647 l -1.227032,2.42917 0.865468,-0.1389 c 2.013898,-0.32321 8.103138,-0.96353 12.904008,-1.35694 2.83766,-0.23253 5.27249,-0.53274 5.41073,-0.66713 0.13825,-0.13439 0.75009,-0.24435 1.35966,-0.24435 0.87123,0 1.10045,0.094 1.07157,0.43943 -0.0264,0.31606 0.33468,0.53547 1.28617,0.78149 2.05994,0.53261 3.77463,1.4263 3.94345,2.0553 0.0827,0.30813 0.152,1.62431 0.15398,2.92484 l 0.004,2.36459 -1.62812,2.794781 c -0.89547,1.53713 -2.2605,3.49505 -3.0334,4.35093 -1.45119,1.607 -1.49888,1.84862 -0.56574,2.86617 0.4793,0.52264 0.94892,1.27772 1.38954,2.23417 0.21174,0.45961 0.53677,0.89669 0.72229,0.9713 0.27078,0.10889 0.27002,0.13976 -0.004,0.15653 -0.36671,0.0225 -0.33188,0.0807 0.87234,1.45887 0.37318,0.42709 0.61889,0.9319 0.54603,1.12179 -0.0809,0.21075 0.14356,0.41454 0.57613,0.5231 0.64451,0.16177 0.66162,0.19652 0.1891,0.38416 -0.49689,0.19731 -0.49358,0.21408 0.0758,0.38487 0.32742,0.0982 0.59531,0.26986 0.59531,0.38143 0,0.11158 -0.26789,0.27466 -0.59531,0.36241 -0.70723,0.18953 -47.4520895,0.1646 -48.2203205,-0.0257 z M 26.687753,69.231381 c 0,-0.35521 -0.119063,-0.64584 -0.264584,-0.64584 -0.145521,0 -0.264583,0.36421 -0.264583,0.80936 0,0.4722 0.11022,0.74125 0.264583,0.64584 0.145521,-0.0899 0.264584,-0.45415 0.264584,-0.80936 z m 1.058333,-24.209384 c 0,-0.1541 -0.119062,-0.20661 -0.264583,-0.11667 -0.145521,0.0899 -0.264584,0.0532 -0.264584,-0.0815 0,-0.13477 -0.460975,-0.5501 -1.024387,-0.92295 l -1.02439,-0.6779 -0.281453,0.61772 c -0.248113,0.54455 -0.197284,0.65057 0.429077,0.89502 0.39079,0.15252 1.008185,0.32616 1.371987,0.38587 0.363802,0.0597 0.750755,0.12479 0.859896,0.1446 0.10914,0.0198 0.198437,-0.0901 0.198437,-0.24417 z m -1.322917,-2.74981 c 0,-0.19413 -0.177194,-0.42095 -0.393766,-0.50406 -0.357904,-0.13734 -0.39306,0.11258 -0.155062,1.10229 0.05717,0.23775 0.548828,-0.29816 0.548828,-0.59823 z M 15.046086,0.58761662 c 0.218281,-0.14106 0.515938,-0.25648 0.661458,-0.25648 0.145521,0 0.08599,0.11542 -0.132291,0.25648 -0.218282,0.14106 -0.515938,0.25648 -0.661459,0.25648 -0.145521,0 -0.08599,-0.11542 0.132292,-0.25648 z"
       id="path302" /></g></svg>
